<svg xmlns="http://www.w3.org/2000/svg" shape-rendering="geometricPrecision" text-rendering="geometricPrecision" image-rendering="optimizeQuality" fill-rule="evenodd" clip-rule="evenodd" viewBox="0 0 512 440.478"><g fill-rule="nonzero"><path d="M39.1 73.078h109.472V32.764c0-9.004 3.679-17.184 9.609-23.116l.039-.039C164.152 3.678 172.332 0 181.336 0h149.329c9.031 0 17.223 3.677 23.155 9.609.216.216.42.441.612.671 5.572 5.892 8.998 13.813 8.998 22.484v40.314h109.469c21.433 0 39.101 17.661 39.101 39.1v289.2c0 21.434-17.659 39.1-39.101 39.1H39.1c-21.42 0-39.1-17.686-39.1-39.1v-289.2c0-21.418 17.687-39.1 39.1-39.1zm149.732 0H323.17V40.259H188.832v32.819z"/><path fill="#92521E" d="M39.1 84.4h433.8c15.247 0 27.778 12.547 27.778 27.779v289.199c0 15.25-12.543 27.778-27.778 27.778H39.1c-15.247 0-27.778-12.546-27.778-27.778V112.179C11.322 96.932 23.868 84.4 39.1 84.4z"/><path fill="#AD6739" d="M39.1 84.4h433.8c15.247 0 27.778 12.547 27.778 27.779v85.472c-126.623 55.716-232.313 158.899-489.355-6.303v-79.169C11.323 96.93 23.867 84.4 39.1 84.4z"/><path fill="#03040D" d="M9.866 190.341c31.556 21.314 66.418 39.504 102.402 54.354 38.374 15.836 78.105 27.923 116.539 35.993l-2.752 11.379c-39.134-8.217-79.65-20.549-118.847-36.725-36.89-15.224-72.547-33.815-104.712-55.541l7.37-9.46zM510.248 199.277c-32.362 21.917-68.128 40.626-105.057 55.898-39.294 16.25-79.943 28.64-119.244 36.892l-2.752-11.379c38.532-8.091 78.377-20.235 116.885-36.16 36.209-14.974 71.212-33.272 102.798-54.666l7.37 9.415z"/><path d="M246.202 240.255H265.8c5.685 0 10.82 2.293 14.536 6.009a20.476 20.476 0 016.01 14.538v51.147a20.482 20.482 0 01-6.009 14.538 20.478 20.478 0 01-14.537 6.009h-19.598c-5.645 0-10.769-2.291-14.503-6.01l-.054-.055c-3.707-3.732-5.99-8.847-5.99-14.482v-51.147c0-5.645 2.29-10.768 6.009-14.503l.055-.054c3.732-3.707 8.848-5.99 14.483-5.99zm19.598 17.652h-19.598c-.833 0-1.56.307-2.057.804l-.034.034c-.498.498-.805 1.224-.805 2.057v51.147c0 .833.308 1.56.805 2.056l.034.035c.497.497 1.224.804 2.057.804H265.8c.812 0 1.54-.32 2.057-.838a2.894 2.894 0 00.838-2.057v-51.147c0-.813-.321-1.539-.839-2.057a2.89 2.89 0 00-2.056-.838z"/><path fill="#FDB735" d="M246.201 249.081H265.8a11.69 11.69 0 0111.721 11.721v51.147A11.69 11.69 0 01265.8 323.67h-19.599a11.69 11.69 0 01-11.72-11.721v-51.147a11.69 11.69 0 0111.72-11.721z"/><path fill="#8D531F" d="M178.767 74.45h-20.13V32.764c0-12.506 10.193-22.699 22.699-22.699h149.329c12.506 0 22.7 10.194 22.7 22.699V74.45h-20.13V32.764c0-1.394-1.175-2.569-2.57-2.569H181.336c-1.395 0-2.569 1.174-2.569 2.569V74.45z"/></g></svg>